HIERARCHY
ROOT Hips
{
	OFFSET -0.001795 -0.223333 0.028219
	CHANNELS 6 Xposition Yposition Zposition Zrotation Yrotation Xrotation 
	JOINT LeftUpLeg
	{
		OFFSET 0.069520 -0.091406 -0.006815
		CHANNELS 3 Zrotation Yrotation Xrotation
		JOINT LeftLeg
		{
			OFFSET 0.034277 -0.375199 -0.004496
			CHANNELS 3 Zrotation Yrotation Xrotation
			JOINT LeftFoot
			{
				OFFSET -0.013596 -0.397961 -0.043693
				CHANNELS 3 Zrotation Yrotation Xrotation
				JOINT LeftToe
				{
					OFFSET 0.026358 -0.055791 0.119288
					CHANNELS 3 Zrotation Yrotation Xrotation
					End Site
					{
						OFFSET 0.000000 0.000000 0.000000
					}
				}
			}
		}
	}
	JOINT RightUpLeg
	{
		OFFSET -0.067670 -0.090522 -0.004320
		CHANNELS 3 Zrotation Yrotation Xrotation
		JOINT RightLeg
		{
			OFFSET -0.038290 -0.382569 -0.008850
			CHANNELS 3 Zrotation Yrotation Xrotation
			JOINT RightFoot
			{
				OFFSET 0.015774 -0.398415 -0.042312
				CHANNELS 3 Zrotation Yrotation Xrotation
				JOINT RightToe
				{
					OFFSET -0.025372 -0.048144 0.123348
					CHANNELS 3 Zrotation Yrotation Xrotation
					End Site
					{
						OFFSET 0.000000 0.000000 0.000000
					}
				}
			}
		}
	}
	JOINT Spine
	{
		OFFSET -0.002533 0.108963 -0.026696
		CHANNELS 3 Zrotation Yrotation Xrotation
		JOINT Spine1
		{
			OFFSET 0.005487 0.135180 0.001092
			CHANNELS 3 Zrotation Yrotation Xrotation
			JOINT Spine2
			{
				OFFSET 0.001457 0.052922 0.025425
				CHANNELS 3 Zrotation Yrotation Xrotation
				JOINT Neck
				{
					OFFSET -0.002778 0.213870 -0.042857
					CHANNELS 3 Zrotation Yrotation Xrotation
					JOINT Head
					{
						OFFSET 0.005152 0.064970 0.051349
						CHANNELS 3 Zrotation Yrotation Xrotation
						End Site
						{
							OFFSET 0.000000 0.000000 0.000000
						}
					}
				}
				JOINT LeftShoulder
				{
					OFFSET 0.078845 0.121749 -0.034090
					CHANNELS 3 Zrotation Yrotation Xrotation
					JOINT LeftArm
					{
						OFFSET 0.090977 0.030469 -0.008868
						CHANNELS 3 Zrotation Yrotation Xrotation
						JOINT LeftForeArm
						{
							OFFSET 0.259612 -0.012772 -0.027456
							CHANNELS 3 Zrotation Yrotation Xrotation
							JOINT LeftHand
							{
								OFFSET 0.249234 0.008986 -0.001171
								CHANNELS 3 Zrotation Yrotation Xrotation
								End Site
								{
									OFFSET 0.000000 0.000000 0.000000
								}
							}
						}
					}
				}
				JOINT RightShoulder
				{
					OFFSET -0.081759 0.118833 -0.038615
					CHANNELS 3 Zrotation Yrotation Xrotation
					JOINT RightArm
					{
						OFFSET -0.096012 0.032551 -0.009143
						CHANNELS 3 Zrotation Yrotation Xrotation
						JOINT RightForeArm
						{
							OFFSET -0.253742 -0.013329 -0.021401
							CHANNELS 3 Zrotation Yrotation Xrotation
							JOINT RightHand
							{
								OFFSET -0.255298 0.007772 -0.005559
								CHANNELS 3 Zrotation Yrotation Xrotation
								End Site
								{
									OFFSET 0.000000 0.000000 0.000000
								}
							}
						}
					}
				}
			}
		}
	}
}
MOTION
Frames: 15
Frame Time: 0.050000
-1.340439 0.923422 0.151841 6.337200 62.039530 -2.157274 7.434101 -1.242360 -7.766249 -24.317920 -3.375067 36.710398 17.681557 27.760570 15.588829 0.000000 0.000000 0.000000 1.266494 0.238641 -5.758656 1.042706 -6.294469 24.793983 -1.042375 -8.101644 -7.180708 0.000000 0.000000 0.000000 1.352109 -3.160651 19.490888 -0.190957 1.119377 -7.028788 0.457717 3.205242 17.167988 3.367562 5.813838 -34.198881 0.000000 0.000000 0.000000 -26.303716 -22.090012 -5.380615 -49.136519 -4.836110 0.200728 -4.906229 -44.766514 -1.532015 0.000000 0.000000 0.000000 25.057138 9.628315 16.867662 38.680304 17.513899 -2.413194 2.873074 29.730410 1.891711 0.000000 0.000000 0.000000 
-1.369254 0.926929 0.136735 7.051248 62.960159 -1.260363 6.836952 -1.211180 -8.253580 -24.466002 -3.469126 35.991267 16.469687 26.258666 12.086107 0.000000 0.000000 0.000000 1.735954 0.336522 -7.185390 0.392011 -5.302959 22.907774 -1.943423 -9.577137 -4.962562 0.000000 0.000000 0.000000 0.994968 -3.073686 19.351013 0.198939 0.959804 -6.877934 0.352887 3.508982 16.083200 3.355167 5.820792 -33.313983 0.000000 0.000000 0.000000 -26.642351 -23.109880 -5.211090 -48.230407 -4.831345 0.509738 -6.303412 -43.001150 -0.791821 0.000000 0.000000 0.000000 25.073580 8.422652 16.233015 38.496480 16.392162 -2.693875 3.383143 30.555830 2.155883 0.000000 0.000000 0.000000 
-1.396489 0.931160 0.122265 6.935381 64.529756 -1.600855 6.674609 -1.233866 -8.656747 -24.044949 -3.873094 36.553122 15.764778 25.539121 12.611473 0.000000 0.000000 0.000000 1.591723 0.271539 -6.668491 1.657925 -4.559998 18.754121 -3.134080 -11.358208 -2.075359 0.000000 0.000000 0.000000 1.530533 -3.045529 18.793496 1.349033 0.543978 -6.739256 -1.085193 2.919322 16.167458 4.144719 5.533895 -33.304140 0.000000 0.000000 0.000000 -27.053806 -23.459281 -5.503582 -48.174432 -6.131293 1.276745 -7.289906 -41.796014 -0.445022 0.000000 0.000000 0.000000 25.631563 9.113744 17.242556 38.354164 18.006154 -2.353099 1.787006 28.842786 1.515306 0.000000 0.000000 0.000000 
-1.422810 0.934014 0.108620 6.187858 63.981541 -2.714270 5.934139 -1.082642 -8.002761 -22.330188 -3.998378 36.542234 15.286626 25.118675 13.277599 0.000000 0.000000 0.000000 1.977735 0.330598 -5.993290 2.089632 -3.393884 14.715104 -3.861913 -11.383850 0.820258 0.000000 0.000000 0.000000 2.181669 -3.034181 18.435320 -0.360275 1.050745 -6.200687 0.542019 3.246277 16.229234 3.574335 5.758040 -32.746642 0.000000 0.000000 0.000000 -25.835306 -23.847515 -4.549783 -49.752798 -9.034032 1.855514 -8.121825 -40.132856 -0.079943 0.000000 0.000000 0.000000 24.662581 10.325786 17.407569 38.927916 19.192668 -1.771433 0.125442 28.070177 1.043880 0.000000 0.000000 0.000000 
-1.449031 0.935097 0.095750 5.094614 64.035391 -3.293630 5.099088 -0.948309 -7.357138 -20.134563 -4.347767 36.604610 14.822207 24.570074 13.647122 0.000000 0.000000 0.000000 2.147022 0.373036 -6.276434 3.071283 -2.770168 10.830245 -4.714623 -11.418177 3.933431 0.000000 0.000000 0.000000 2.262717 -2.733839 17.331042 0.333075 0.812909 -6.234615 0.310599 2.968043 16.273953 3.119240 5.955068 -33.151426 0.000000 0.000000 0.000000 -25.289511 -24.139033 -4.069053 -49.899789 -8.968382 1.598811 -9.080085 -41.265252 0.237817 0.000000 0.000000 0.000000 24.338484 11.157063 17.826175 38.410534 20.610808 -1.281371 -0.315033 28.298483 0.925392 0.000000 0.000000 0.000000 
-1.476108 0.934727 0.083574 4.335705 64.767996 -4.082710 3.364673 -0.676881 -5.700191 -17.647409 -4.834660 36.409302 14.707491 23.848008 12.511206 0.000000 0.000000 0.000000 2.419712 0.420680 -6.991065 3.396344 -2.464786 8.729723 -5.679522 -11.731324 6.916471 0.000000 0.000000 0.000000 2.548259 -2.677255 16.951265 0.141378 0.892452 -6.280362 0.422623 2.154582 16.287065 2.634188 6.142804 -33.001829 0.000000 0.000000 0.000000 -25.603627 -23.967301 -4.118423 -49.172128 -10.156609 2.096875 -10.404927 -40.967555 0.839942 0.000000 0.000000 0.000000 25.142400 11.568372 18.459924 36.307845 22.315197 -1.095352 -0.808047 28.974163 0.808409 0.000000 0.000000 0.000000 
-1.503994 0.932758 0.072121 3.077678 65.349616 -5.010667 2.941380 -0.592704 -4.833743 -16.532853 -5.204784 36.884686 14.532333 22.990742 10.453385 0.000000 0.000000 0.000000 3.189457 0.562278 -8.806770 3.164103 -2.220179 7.918495 -6.566325 -11.869990 9.702780 0.000000 0.000000 0.000000 2.814793 -2.636876 16.613984 0.400250 0.844064 -6.511155 0.135330 2.217723 16.140056 2.341206 6.252303 -31.913727 0.000000 0.000000 0.000000 -24.878194 -24.610884 -3.741976 -49.489567 -10.951575 2.359882 -9.848844 -40.655966 0.500437 0.000000 0.000000 0.000000 24.907844 12.603348 19.221697 36.448035 23.875998 -0.585182 -2.018661 29.890177 0.570001 0.000000 0.000000 0.000000 
-1.533057 0.930830 0.061481 2.348205 64.888295 -5.225834 2.600160 -0.502731 -3.341172 -15.341308 -4.904482 35.269993 15.035919 24.163801 16.153939 0.000000 0.000000 0.000000 3.611781 0.610418 -11.224760 3.336163 -2.170119 7.623152 -6.858864 -10.850050 12.508414 0.000000 0.000000 0.000000 2.095958 -2.455259 16.477482 0.996864 0.729201 -7.031862 0.395083 3.065755 16.109280 0.924012 6.906985 -32.015786 0.000000 0.000000 0.000000 -25.468516 -24.131394 -4.546436 -49.383754 -10.665907 2.460631 -10.565327 -40.424551 0.729741 0.000000 0.000000 0.000000 25.198243 13.925452 20.464330 34.246910 25.476551 -0.398376 -1.251067 31.354570 0.758493 0.000000 0.000000 0.000000 
-1.563668 0.930140 0.051422 2.121618 65.425694 -5.144773 1.816838 -0.393270 -1.467755 -15.479049 -5.199023 36.525195 10.874798 21.729416 22.232311 0.000000 0.000000 0.000000 4.004838 0.622799 -12.569314 3.106119 -1.743561 5.657559 -7.639490 -10.479643 16.272214 0.000000 0.000000 0.000000 1.983134 -2.183832 15.501593 0.745285 0.822989 -7.078087 -0.014302 3.181398 17.191306 2.599665 6.379687 -32.407847 0.000000 0.000000 0.000000 -25.515376 -25.393134 -4.285331 -48.392479 -10.501262 2.615092 -8.123983 -40.145666 -0.175505 0.000000 0.000000 0.000000 25.571637 14.763578 21.607899 33.811702 27.727752 0.017276 -3.391169 33.615109 0.306198 0.000000 0.000000 0.000000 
-1.595893 0.928491 0.041807 1.055103 65.128872 -7.086485 1.545448 -0.438472 1.973301 -14.944040 -5.240687 36.884271 7.321619 18.903560 22.635077 0.000000 0.000000 0.000000 5.046638 0.795658 -13.130069 2.689666 -1.449274 4.666264 -7.909271 -9.577324 19.736605 0.000000 0.000000 0.000000 1.864372 -2.209477 15.719269 -0.329194 1.112672 -6.555571 0.442919 4.374458 18.425202 3.632472 6.113415 -31.680415 0.000000 0.000000 0.000000 -24.787347 -25.290577 -4.639348 -48.905198 -11.928619 3.105256 -5.323340 -39.363405 -1.347740 0.000000 0.000000 0.000000 25.627802 16.022690 22.708514 34.797285 30.556069 0.983331 -5.921858 34.088245 -0.452884 0.000000 0.000000 0.000000 
-1.629920 0.927336 0.032376 -1.155639 65.969317 -9.246678 1.255076 -0.540850 3.936584 -12.282955 -4.991254 33.745091 8.793055 19.242741 19.744892 0.000000 0.000000 0.000000 5.114498 0.665726 -14.964156 4.263115 -1.910196 4.141840 -8.289408 -8.894830 23.716966 0.000000 0.000000 0.000000 1.137173 -2.383639 16.724495 0.001180 1.202210 -7.589013 0.378496 4.059161 19.563824 4.461943 5.871232 -31.476938 0.000000 0.000000 0.000000 -24.720785 -26.399481 -4.078258 -47.729711 -11.297294 2.852693 -4.357192 -38.763912 -1.503838 0.000000 0.000000 0.000000 26.486168 15.665812 23.207844 35.296551 32.986393 1.511264 -6.460601 34.186496 -0.628544 0.000000 0.000000 0.000000 
-1.665569 0.924872 0.022448 -2.615883 65.811558 -11.106217 1.483733 -0.850627 6.710191 -9.902316 -3.802715 28.104042 9.952480 18.301853 14.012737 0.000000 0.000000 0.000000 6.101837 0.752333 -16.396613 4.144129 -1.772584 3.575684 -8.179460 -7.905399 27.363723 0.000000 0.000000 0.000000 0.178729 -2.606019 18.061107 -0.318877 1.318022 -7.486636 0.462598 4.972535 19.927340 6.564716 5.009073 -31.387703 0.000000 0.000000 0.000000 -24.622311 -27.945995 -3.388254 -47.664465 -11.298610 2.960276 0.373854 -37.809852 -3.096069 0.000000 0.000000 0.000000 25.912271 15.297374 22.763795 38.080467 34.511853 2.628826 -8.577247 34.888405 -1.034852 0.000000 0.000000 0.000000 
-1.702410 0.922148 0.011466 -2.502314 66.487690 -11.528359 1.513782 -0.938297 7.205069 -8.693061 -3.241719 24.918605 11.219182 17.017548 7.931026 0.000000 0.000000 0.000000 5.876609 0.498249 -18.039690 4.060173 -2.055411 5.671833 -8.310811 -7.916417 28.094792 0.000000 0.000000 0.000000 -1.189788 -2.868083 19.604768 -0.815392 1.479019 -7.362956 0.355305 4.665096 19.607224 7.501850 4.455534 -31.132759 0.000000 0.000000 0.000000 -24.516584 -28.752508 -2.723928 -46.291723 -11.522624 3.093464 1.982985 -37.184103 -3.440092 0.000000 0.000000 0.000000 26.966056 15.230855 23.207163 39.355630 34.777631 2.747418 -9.372303 35.543028 -1.234017 0.000000 0.000000 0.000000 
-1.739534 0.920393 -0.000271 -1.162417 65.480285 -11.417008 1.382862 -0.865851 7.061042 -9.463752 -2.804645 23.590528 13.082510 17.907706 5.312974 0.000000 0.000000 0.000000 5.537800 0.381466 -18.715275 4.125931 -2.389100 7.750016 -7.272610 -6.754561 27.668910 0.000000 0.000000 0.000000 -2.700808 -3.171149 21.473476 -2.270159 1.983569 -7.515926 0.847038 5.027968 21.205939 9.732600 3.456390 -32.425253 0.000000 0.000000 0.000000 -23.903816 -29.429580 -1.880159 -45.461992 -13.214199 3.458745 4.832410 -37.046088 -4.324702 0.000000 0.000000 0.000000 26.923944 14.641270 22.614833 40.649491 35.617686 3.233918 -8.954250 36.459468 -0.947938 0.000000 0.000000 0.000000 
-1.775711 0.920160 -0.010906 -1.671404 64.610957 -13.020975 1.548063 -0.808199 6.593036 -9.246252 -2.634731 22.949350 14.677507 19.035094 3.662900 0.000000 0.000000 0.000000 4.695371 0.100516 -19.713834 5.336988 -3.911331 12.479551 -6.754258 -7.125534 23.711988 0.000000 0.000000 0.000000 -4.269550 -3.530749 23.416164 -2.188831 2.067072 -8.103110 1.502712 5.349115 22.508521 9.081936 3.658836 -31.998192 0.000000 0.000000 0.000000 -24.555730 -30.954802 -0.930452 -43.021323 -13.437159 3.574071 4.739522 -37.205229 -4.007710 0.000000 0.000000 0.000000 25.276193 14.879534 21.509816 43.844786 35.124978 4.113161 -9.823240 37.184504 -0.970186 0.000000 0.000000 0.000000 
